<mxfile host="app.diagrams.net" agent="Mozilla/5.0 (Windows NT 10.0; Win64; x64) AppleWebKit/537.36 (KHTML, like Gecko) Chrome/131.0.0.0 Safari/537.36" version="25.0.3">
  <diagram name="Pagina-1" id="zAOE3x9NyYHljriVFRjR">
    <mxGraphModel dx="1434" dy="772" grid="1" gridSize="10" guides="1" tooltips="1" connect="1" arrows="1" fold="1" page="1" pageScale="1" pageWidth="827" pageHeight="1169" math="0" shadow="0">
      <root>
        <mxCell id="0" />
        <mxCell id="1" parent="0" />
        <mxCell id="ZkFxMR08bk3y3ta0CtAW-1" value="creano" style="shape=rhombus;perimeter=rhombusPerimeter;whiteSpace=wrap;html=1;align=center;" vertex="1" parent="1">
          <mxGeometry x="330" y="264.5" width="120" height="60" as="geometry" />
        </mxCell>
        <mxCell id="ZkFxMR08bk3y3ta0CtAW-2" value="" style="endArrow=none;html=1;rounded=0;" edge="1" parent="1">
          <mxGeometry relative="1" as="geometry">
            <mxPoint x="530" y="514.5" as="sourcePoint" />
            <mxPoint x="530" y="584.5" as="targetPoint" />
          </mxGeometry>
        </mxCell>
        <mxCell id="ZkFxMR08bk3y3ta0CtAW-3" value="partita" style="whiteSpace=wrap;html=1;align=center;" vertex="1" parent="1">
          <mxGeometry x="480" y="574.5" width="100" height="40" as="geometry" />
        </mxCell>
        <mxCell id="ZkFxMR08bk3y3ta0CtAW-4" value="partite utente" style="whiteSpace=wrap;html=1;align=center;" vertex="1" parent="1">
          <mxGeometry x="300" y="694.5" width="100" height="40" as="geometry" />
        </mxCell>
        <mxCell id="ZkFxMR08bk3y3ta0CtAW-5" value="partite disponibili&amp;nbsp;&amp;nbsp;" style="whiteSpace=wrap;html=1;align=center;" vertex="1" parent="1">
          <mxGeometry x="340" y="384.5" width="100" height="40" as="geometry" />
        </mxCell>
        <mxCell id="ZkFxMR08bk3y3ta0CtAW-6" value="utenti" style="whiteSpace=wrap;html=1;align=center;" vertex="1" parent="1">
          <mxGeometry x="200" y="274.5" width="100" height="40" as="geometry" />
        </mxCell>
        <mxCell id="ZkFxMR08bk3y3ta0CtAW-7" value="" style="endArrow=none;html=1;rounded=0;entryX=1;entryY=0.5;entryDx=0;entryDy=0;exitX=0;exitY=0.5;exitDx=0;exitDy=0;" edge="1" parent="1" source="ZkFxMR08bk3y3ta0CtAW-1" target="ZkFxMR08bk3y3ta0CtAW-6">
          <mxGeometry relative="1" as="geometry">
            <mxPoint x="370" y="194.5" as="sourcePoint" />
            <mxPoint x="330" y="194.5" as="targetPoint" />
            <Array as="points">
              <mxPoint x="330" y="294.5" />
            </Array>
          </mxGeometry>
        </mxCell>
        <mxCell id="ZkFxMR08bk3y3ta0CtAW-8" value="viene registrata" style="shape=rhombus;perimeter=rhombusPerimeter;whiteSpace=wrap;html=1;align=center;" vertex="1" parent="1">
          <mxGeometry x="290" y="564.5" width="120" height="60" as="geometry" />
        </mxCell>
        <mxCell id="ZkFxMR08bk3y3ta0CtAW-9" value="abbinano" style="shape=rhombus;perimeter=rhombusPerimeter;whiteSpace=wrap;html=1;align=center;" vertex="1" parent="1">
          <mxGeometry x="470" y="454.5" width="120" height="60" as="geometry" />
        </mxCell>
        <mxCell id="ZkFxMR08bk3y3ta0CtAW-10" value="" style="endArrow=none;html=1;rounded=0;fontFamily=Helvetica;fontSize=12;fontColor=default;entryX=0.5;entryY=1;entryDx=0;entryDy=0;" edge="1" parent="1">
          <mxGeometry width="50" height="50" relative="1" as="geometry">
            <mxPoint x="210" y="644.5" as="sourcePoint" />
            <mxPoint x="210" y="644.5" as="targetPoint" />
          </mxGeometry>
        </mxCell>
        <mxCell id="ZkFxMR08bk3y3ta0CtAW-11" value="" style="endArrow=none;html=1;rounded=0;exitX=0.5;exitY=1;exitDx=0;exitDy=0;entryX=0.5;entryY=0;entryDx=0;entryDy=0;" edge="1" parent="1" source="ZkFxMR08bk3y3ta0CtAW-1" target="ZkFxMR08bk3y3ta0CtAW-5">
          <mxGeometry width="50" height="50" relative="1" as="geometry">
            <mxPoint x="520" y="524.5" as="sourcePoint" />
            <mxPoint x="570" y="474.5" as="targetPoint" />
          </mxGeometry>
        </mxCell>
        <mxCell id="ZkFxMR08bk3y3ta0CtAW-12" value="" style="endArrow=none;html=1;rounded=0;exitX=0.5;exitY=0;exitDx=0;exitDy=0;entryX=0.5;entryY=1;entryDx=0;entryDy=0;" edge="1" parent="1">
          <mxGeometry width="50" height="50" relative="1" as="geometry">
            <mxPoint x="350" y="694.5" as="sourcePoint" />
            <mxPoint x="350" y="624.5" as="targetPoint" />
            <Array as="points">
              <mxPoint x="350" y="644.5" />
            </Array>
          </mxGeometry>
        </mxCell>
        <mxCell id="ZkFxMR08bk3y3ta0CtAW-13" value="" style="endArrow=none;html=1;rounded=0;exitX=0;exitY=0.5;exitDx=0;exitDy=0;entryX=1;entryY=0.5;entryDx=0;entryDy=0;" edge="1" parent="1" source="ZkFxMR08bk3y3ta0CtAW-5" target="ZkFxMR08bk3y3ta0CtAW-14">
          <mxGeometry relative="1" as="geometry">
            <mxPoint x="249.5" y="464.5" as="sourcePoint" />
            <mxPoint x="250" y="434.5" as="targetPoint" />
          </mxGeometry>
        </mxCell>
        <mxCell id="ZkFxMR08bk3y3ta0CtAW-14" value="collegano" style="shape=rhombus;perimeter=rhombusPerimeter;whiteSpace=wrap;html=1;align=center;" vertex="1" parent="1">
          <mxGeometry x="190" y="374.5" width="120" height="60" as="geometry" />
        </mxCell>
        <mxCell id="ZkFxMR08bk3y3ta0CtAW-15" value="" style="endArrow=none;html=1;rounded=0;" edge="1" parent="1">
          <mxGeometry relative="1" as="geometry">
            <mxPoint x="250" y="374.5" as="sourcePoint" />
            <mxPoint x="250" y="314.5" as="targetPoint" />
          </mxGeometry>
        </mxCell>
        <mxCell id="ZkFxMR08bk3y3ta0CtAW-16" value="" style="endArrow=none;html=1;rounded=0;" edge="1" parent="1">
          <mxGeometry width="50" height="50" relative="1" as="geometry">
            <mxPoint x="390" y="484.5" as="sourcePoint" />
            <mxPoint x="470" y="484.5" as="targetPoint" />
            <Array as="points">
              <mxPoint x="410" y="484.5" />
            </Array>
          </mxGeometry>
        </mxCell>
        <mxCell id="ZkFxMR08bk3y3ta0CtAW-17" value="" style="endArrow=none;html=1;rounded=0;entryX=0;entryY=0.5;entryDx=0;entryDy=0;exitX=1;exitY=0.5;exitDx=0;exitDy=0;" edge="1" parent="1" source="ZkFxMR08bk3y3ta0CtAW-8" target="ZkFxMR08bk3y3ta0CtAW-3">
          <mxGeometry width="50" height="50" relative="1" as="geometry">
            <mxPoint x="420" y="784.5" as="sourcePoint" />
            <mxPoint x="470" y="734.5" as="targetPoint" />
          </mxGeometry>
        </mxCell>
        <mxCell id="ZkFxMR08bk3y3ta0CtAW-18" value="(n,1)" style="text;html=1;align=center;verticalAlign=middle;resizable=0;points=[];autosize=1;strokeColor=none;fillColor=none;" vertex="1" parent="1">
          <mxGeometry x="275" y="244.5" width="50" height="30" as="geometry" />
        </mxCell>
        <mxCell id="ZkFxMR08bk3y3ta0CtAW-19" value="(1,1)" style="text;html=1;align=center;verticalAlign=middle;resizable=0;points=[];autosize=1;strokeColor=none;fillColor=none;" vertex="1" parent="1">
          <mxGeometry x="330" y="354.5" width="50" height="30" as="geometry" />
        </mxCell>
        <mxCell id="ZkFxMR08bk3y3ta0CtAW-20" value="(n,1)" style="text;html=1;align=center;verticalAlign=middle;resizable=0;points=[];autosize=1;strokeColor=none;fillColor=none;" vertex="1" parent="1">
          <mxGeometry x="180" y="314.5" width="50" height="30" as="geometry" />
        </mxCell>
        <mxCell id="ZkFxMR08bk3y3ta0CtAW-21" value="" style="endArrow=none;html=1;rounded=0;exitX=0.5;exitY=1;exitDx=0;exitDy=0;" edge="1" parent="1" source="ZkFxMR08bk3y3ta0CtAW-5">
          <mxGeometry width="50" height="50" relative="1" as="geometry">
            <mxPoint x="680" y="474.5" as="sourcePoint" />
            <mxPoint x="390" y="484.5" as="targetPoint" />
          </mxGeometry>
        </mxCell>
        <mxCell id="ZkFxMR08bk3y3ta0CtAW-22" value="(1,1)" style="text;html=1;align=center;verticalAlign=middle;resizable=0;points=[];autosize=1;strokeColor=none;fillColor=none;" vertex="1" parent="1">
          <mxGeometry x="370" y="664.5" width="50" height="30" as="geometry" />
        </mxCell>
        <mxCell id="ZkFxMR08bk3y3ta0CtAW-23" value="(1,1)" style="text;html=1;align=center;verticalAlign=middle;resizable=0;points=[];autosize=1;strokeColor=none;fillColor=none;" vertex="1" parent="1">
          <mxGeometry x="430" y="564.5" width="50" height="30" as="geometry" />
        </mxCell>
        <mxCell id="ZkFxMR08bk3y3ta0CtAW-24" value="(1,1)" style="text;html=1;align=center;verticalAlign=middle;resizable=0;points=[];autosize=1;strokeColor=none;fillColor=none;" vertex="1" parent="1">
          <mxGeometry x="400" y="434.5" width="50" height="30" as="geometry" />
        </mxCell>
        <mxCell id="ZkFxMR08bk3y3ta0CtAW-25" value="(1,1)" style="text;html=1;align=center;verticalAlign=middle;resizable=0;points=[];autosize=1;strokeColor=none;fillColor=none;" vertex="1" parent="1">
          <mxGeometry x="544" y="544.5" width="50" height="30" as="geometry" />
        </mxCell>
        <mxCell id="ZkFxMR08bk3y3ta0CtAW-26" value="" style="endArrow=none;html=1;rounded=0;exitX=0;exitY=0;exitDx=0;exitDy=0;" edge="1" parent="1" source="ZkFxMR08bk3y3ta0CtAW-6">
          <mxGeometry width="50" height="50" relative="1" as="geometry">
            <mxPoint x="270" y="224.5" as="sourcePoint" />
            <mxPoint x="200" y="234.5" as="targetPoint" />
            <Array as="points">
              <mxPoint x="200" y="234.5" />
            </Array>
          </mxGeometry>
        </mxCell>
        <mxCell id="ZkFxMR08bk3y3ta0CtAW-27" value="" style="shape=waypoint;sketch=0;fillStyle=solid;size=6;pointerEvents=1;points=[];fillColor=none;resizable=0;rotatable=0;perimeter=centerPerimeter;snapToPoint=1;" vertex="1" parent="1">
          <mxGeometry x="190" y="224.5" width="20" height="20" as="geometry" />
        </mxCell>
        <mxCell id="ZkFxMR08bk3y3ta0CtAW-28" value="ID" style="text;html=1;align=center;verticalAlign=middle;resizable=0;points=[];autosize=1;strokeColor=none;fillColor=none;" vertex="1" parent="1">
          <mxGeometry x="160" y="219.5" width="40" height="30" as="geometry" />
        </mxCell>
        <mxCell id="ZkFxMR08bk3y3ta0CtAW-29" value="" style="endArrow=none;html=1;rounded=0;exitX=0;exitY=0;exitDx=0;exitDy=0;" edge="1" parent="1">
          <mxGeometry width="50" height="50" relative="1" as="geometry">
            <mxPoint x="440" y="384.5" as="sourcePoint" />
            <mxPoint x="440" y="344.5" as="targetPoint" />
            <Array as="points">
              <mxPoint x="440" y="344.5" />
            </Array>
          </mxGeometry>
        </mxCell>
        <mxCell id="ZkFxMR08bk3y3ta0CtAW-30" value="" style="shape=waypoint;sketch=0;fillStyle=solid;size=6;pointerEvents=1;points=[];fillColor=none;resizable=0;rotatable=0;perimeter=centerPerimeter;snapToPoint=1;" vertex="1" parent="1">
          <mxGeometry x="430" y="334.5" width="20" height="20" as="geometry" />
        </mxCell>
        <mxCell id="ZkFxMR08bk3y3ta0CtAW-31" value="ID" style="text;html=1;align=center;verticalAlign=middle;resizable=0;points=[];autosize=1;strokeColor=none;fillColor=none;" vertex="1" parent="1">
          <mxGeometry x="420" y="314.5" width="40" height="30" as="geometry" />
        </mxCell>
        <mxCell id="ZkFxMR08bk3y3ta0CtAW-32" value="" style="endArrow=none;html=1;rounded=0;exitX=0;exitY=0;exitDx=0;exitDy=0;" edge="1" parent="1">
          <mxGeometry width="50" height="50" relative="1" as="geometry">
            <mxPoint x="480" y="574.5" as="sourcePoint" />
            <mxPoint x="480" y="534.5" as="targetPoint" />
            <Array as="points">
              <mxPoint x="480" y="534.5" />
            </Array>
          </mxGeometry>
        </mxCell>
        <mxCell id="ZkFxMR08bk3y3ta0CtAW-33" value="" style="shape=waypoint;sketch=0;fillStyle=solid;size=6;pointerEvents=1;points=[];fillColor=none;resizable=0;rotatable=0;perimeter=centerPerimeter;snapToPoint=1;" vertex="1" parent="1">
          <mxGeometry x="470" y="524.5" width="20" height="20" as="geometry" />
        </mxCell>
        <mxCell id="ZkFxMR08bk3y3ta0CtAW-34" value="ID" style="text;html=1;align=center;verticalAlign=middle;resizable=0;points=[];autosize=1;strokeColor=none;fillColor=none;" vertex="1" parent="1">
          <mxGeometry x="460" y="504.5" width="40" height="30" as="geometry" />
        </mxCell>
        <mxCell id="ZkFxMR08bk3y3ta0CtAW-35" value="" style="endArrow=none;html=1;rounded=0;exitX=0;exitY=0;exitDx=0;exitDy=0;" edge="1" parent="1">
          <mxGeometry width="50" height="50" relative="1" as="geometry">
            <mxPoint x="300" y="694.5" as="sourcePoint" />
            <mxPoint x="300" y="654.5" as="targetPoint" />
            <Array as="points">
              <mxPoint x="300" y="654.5" />
            </Array>
          </mxGeometry>
        </mxCell>
        <mxCell id="ZkFxMR08bk3y3ta0CtAW-36" value="" style="shape=waypoint;sketch=0;fillStyle=solid;size=6;pointerEvents=1;points=[];fillColor=none;resizable=0;rotatable=0;perimeter=centerPerimeter;snapToPoint=1;" vertex="1" parent="1">
          <mxGeometry x="290" y="644.5" width="20" height="20" as="geometry" />
        </mxCell>
        <mxCell id="ZkFxMR08bk3y3ta0CtAW-37" value="ID" style="text;html=1;align=center;verticalAlign=middle;resizable=0;points=[];autosize=1;strokeColor=none;fillColor=none;" vertex="1" parent="1">
          <mxGeometry x="280" y="624.5" width="40" height="30" as="geometry" />
        </mxCell>
        <mxCell id="ZkFxMR08bk3y3ta0CtAW-43" value="" style="endArrow=none;html=1;rounded=0;entryX=0.5;entryY=1;entryDx=0;entryDy=0;exitX=0.25;exitY=0;exitDx=0;exitDy=0;" edge="1" parent="1" source="ZkFxMR08bk3y3ta0CtAW-47">
          <mxGeometry width="50" height="50" relative="1" as="geometry">
            <mxPoint x="40" y="354.5" as="sourcePoint" />
            <mxPoint x="225" y="242.5" as="targetPoint" />
          </mxGeometry>
        </mxCell>
        <mxCell id="ZkFxMR08bk3y3ta0CtAW-45" value="" style="endArrow=none;html=1;rounded=0;entryX=0.75;entryY=0;entryDx=0;entryDy=0;" edge="1" parent="1" target="ZkFxMR08bk3y3ta0CtAW-6">
          <mxGeometry width="50" height="50" relative="1" as="geometry">
            <mxPoint x="275" y="234.5" as="sourcePoint" />
            <mxPoint x="525" y="264.5" as="targetPoint" />
          </mxGeometry>
        </mxCell>
        <mxCell id="ZkFxMR08bk3y3ta0CtAW-50" value="" style="endArrow=none;html=1;rounded=0;entryX=0.5;entryY=1;entryDx=0;entryDy=0;exitX=0.25;exitY=0;exitDx=0;exitDy=0;" edge="1" parent="1" source="ZkFxMR08bk3y3ta0CtAW-6" target="ZkFxMR08bk3y3ta0CtAW-47">
          <mxGeometry width="50" height="50" relative="1" as="geometry">
            <mxPoint x="225" y="274.5" as="sourcePoint" />
            <mxPoint x="225" y="242.5" as="targetPoint" />
          </mxGeometry>
        </mxCell>
        <mxCell id="ZkFxMR08bk3y3ta0CtAW-47" value="" style="ellipse;whiteSpace=wrap;html=1;aspect=fixed;" vertex="1" parent="1">
          <mxGeometry x="220" y="230" width="9" height="9" as="geometry" />
        </mxCell>
        <mxCell id="ZkFxMR08bk3y3ta0CtAW-51" value="username" style="text;html=1;align=center;verticalAlign=middle;resizable=0;points=[];autosize=1;strokeColor=none;fillColor=none;" vertex="1" parent="1">
          <mxGeometry x="184.5" y="200" width="80" height="30" as="geometry" />
        </mxCell>
        <mxCell id="ZkFxMR08bk3y3ta0CtAW-53" value="" style="ellipse;whiteSpace=wrap;html=1;aspect=fixed;" vertex="1" parent="1">
          <mxGeometry x="271" y="224.5" width="9" height="9" as="geometry" />
        </mxCell>
        <mxCell id="ZkFxMR08bk3y3ta0CtAW-54" value="nome" style="text;html=1;align=center;verticalAlign=middle;resizable=0;points=[];autosize=1;strokeColor=none;fillColor=none;" vertex="1" parent="1">
          <mxGeometry x="250.5" y="200" width="50" height="30" as="geometry" />
        </mxCell>
        <mxCell id="ZkFxMR08bk3y3ta0CtAW-55" value="cognome" style="text;html=1;align=center;verticalAlign=middle;resizable=0;points=[];autosize=1;strokeColor=none;fillColor=none;" vertex="1" parent="1">
          <mxGeometry x="120" y="264.5" width="70" height="30" as="geometry" />
        </mxCell>
        <mxCell id="ZkFxMR08bk3y3ta0CtAW-58" value="" style="endArrow=none;html=1;rounded=0;entryX=0;entryY=0.5;entryDx=0;entryDy=0;" edge="1" parent="1" source="ZkFxMR08bk3y3ta0CtAW-57" target="ZkFxMR08bk3y3ta0CtAW-6">
          <mxGeometry width="50" height="50" relative="1" as="geometry">
            <mxPoint x="130" y="294.5" as="sourcePoint" />
            <mxPoint x="130" y="324.5" as="targetPoint" />
          </mxGeometry>
        </mxCell>
        <mxCell id="ZkFxMR08bk3y3ta0CtAW-62" value="" style="endArrow=none;html=1;rounded=0;exitX=1;exitY=0.5;exitDx=0;exitDy=0;exitPerimeter=0;" edge="1" parent="1" source="ZkFxMR08bk3y3ta0CtAW-57">
          <mxGeometry width="50" height="50" relative="1" as="geometry">
            <mxPoint x="130" y="294.5" as="sourcePoint" />
            <mxPoint x="151" y="294.5" as="targetPoint" />
          </mxGeometry>
        </mxCell>
        <mxCell id="ZkFxMR08bk3y3ta0CtAW-57" value="" style="ellipse;whiteSpace=wrap;html=1;aspect=fixed;" vertex="1" parent="1">
          <mxGeometry x="151" y="290" width="9" height="9" as="geometry" />
        </mxCell>
        <mxCell id="ZkFxMR08bk3y3ta0CtAW-65" value="" style="ellipse;whiteSpace=wrap;html=1;aspect=fixed;" vertex="1" parent="1">
          <mxGeometry x="620" y="580.5" width="9" height="9" as="geometry" />
        </mxCell>
        <mxCell id="ZkFxMR08bk3y3ta0CtAW-66" value="" style="endArrow=none;html=1;rounded=0;exitX=0;exitY=0.5;exitDx=0;exitDy=0;entryX=1;entryY=0.25;entryDx=0;entryDy=0;" edge="1" parent="1" source="ZkFxMR08bk3y3ta0CtAW-65" target="ZkFxMR08bk3y3ta0CtAW-3">
          <mxGeometry width="50" height="50" relative="1" as="geometry">
            <mxPoint x="520" y="524.5" as="sourcePoint" />
            <mxPoint x="570" y="474.5" as="targetPoint" />
          </mxGeometry>
        </mxCell>
        <mxCell id="ZkFxMR08bk3y3ta0CtAW-68" value="Mosse" style="text;html=1;align=center;verticalAlign=middle;resizable=0;points=[];autosize=1;strokeColor=none;fillColor=none;" vertex="1" parent="1">
          <mxGeometry x="594.5" y="550.5" width="60" height="30" as="geometry" />
        </mxCell>
        <mxCell id="ZkFxMR08bk3y3ta0CtAW-79" value="" style="ellipse;whiteSpace=wrap;html=1;aspect=fixed;" vertex="1" parent="1">
          <mxGeometry x="440" y="714.5" width="9" height="9" as="geometry" />
        </mxCell>
        <mxCell id="ZkFxMR08bk3y3ta0CtAW-80" value="" style="endArrow=none;html=1;rounded=0;exitX=0;exitY=0.5;exitDx=0;exitDy=0;entryX=1;entryY=0.25;entryDx=0;entryDy=0;" edge="1" parent="1" source="ZkFxMR08bk3y3ta0CtAW-79">
          <mxGeometry width="50" height="50" relative="1" as="geometry">
            <mxPoint x="340" y="658.5" as="sourcePoint" />
            <mxPoint x="400" y="718.5" as="targetPoint" />
          </mxGeometry>
        </mxCell>
        <mxCell id="ZkFxMR08bk3y3ta0CtAW-81" value="Data" style="text;html=1;align=center;verticalAlign=middle;resizable=0;points=[];autosize=1;strokeColor=none;fillColor=none;" vertex="1" parent="1">
          <mxGeometry x="419.5" y="684.5" width="50" height="30" as="geometry" />
        </mxCell>
        <mxCell id="ZkFxMR08bk3y3ta0CtAW-82" value="" style="ellipse;whiteSpace=wrap;html=1;aspect=fixed;" vertex="1" parent="1">
          <mxGeometry x="262" y="710" width="9" height="9" as="geometry" />
        </mxCell>
        <mxCell id="ZkFxMR08bk3y3ta0CtAW-83" value="" style="endArrow=none;html=1;rounded=0;entryX=0;entryY=0.5;entryDx=0;entryDy=0;" edge="1" parent="1" target="ZkFxMR08bk3y3ta0CtAW-4">
          <mxGeometry width="50" height="50" relative="1" as="geometry">
            <mxPoint x="270" y="714.5" as="sourcePoint" />
            <mxPoint x="410" y="728.5" as="targetPoint" />
          </mxGeometry>
        </mxCell>
        <mxCell id="ZkFxMR08bk3y3ta0CtAW-84" value="Mosse" style="text;html=1;align=center;verticalAlign=middle;resizable=0;points=[];autosize=1;strokeColor=none;fillColor=none;" vertex="1" parent="1">
          <mxGeometry x="229" y="680" width="60" height="30" as="geometry" />
        </mxCell>
        <mxCell id="ZkFxMR08bk3y3ta0CtAW-88" value="" style="ellipse;whiteSpace=wrap;html=1;aspect=fixed;" vertex="1" parent="1">
          <mxGeometry x="620" y="610.5" width="9" height="9" as="geometry" />
        </mxCell>
        <mxCell id="ZkFxMR08bk3y3ta0CtAW-89" value="" style="endArrow=none;html=1;rounded=0;exitX=0;exitY=0.5;exitDx=0;exitDy=0;entryX=1;entryY=0.25;entryDx=0;entryDy=0;" edge="1" parent="1" source="ZkFxMR08bk3y3ta0CtAW-88">
          <mxGeometry width="50" height="50" relative="1" as="geometry">
            <mxPoint x="520" y="554.5" as="sourcePoint" />
            <mxPoint x="580" y="614.5" as="targetPoint" />
          </mxGeometry>
        </mxCell>
        <mxCell id="ZkFxMR08bk3y3ta0CtAW-90" value="Data" style="text;html=1;align=center;verticalAlign=middle;resizable=0;points=[];autosize=1;strokeColor=none;fillColor=none;" vertex="1" parent="1">
          <mxGeometry x="604.5" y="624.5" width="50" height="30" as="geometry" />
        </mxCell>
      </root>
    </mxGraphModel>
  </diagram>
</mxfile>
